G04 DipTrace 3.1.0.1*
G04 HelloWorld1.gtl*
%MOIN*%
G04 #@! TF.FileFunction,Copper,L1,Top*
G04 #@! TF.Part,Single*
G04 #@! TA.AperFunction,Conductor*
%ADD13C,0.012992*%
%ADD15R,0.051181X0.059055*%
G04 #@! TA.AperFunction,ComponentPad*
%ADD16R,0.066929X0.066929*%
%ADD17C,0.066929*%
%ADD18R,0.070866X0.015748*%
G04 #@! TA.AperFunction,ViaPad*
%ADD19C,0.04*%
%FSLAX26Y26*%
G04*
G70*
G90*
G75*
G01*
G04 Top*
%LPD*%
X753724Y544000D2*
D13*
Y606520D1*
X783843Y724000D2*
Y816047D1*
X728921D1*
X928921Y1144000D2*
X870335D1*
Y1193016D1*
X814909D1*
X753724Y606520D2*
X666244Y694000D1*
X474000D1*
X814909Y1193016D2*
X678921D1*
Y1144000D1*
X728921Y841638D2*
X581520D1*
Y1069000D1*
X607504Y1094984D1*
X753724D1*
X1003724D1*
Y1144000D1*
X753724Y1094984D2*
Y1144000D1*
X474000Y794000D2*
X509945Y829945D1*
X547098D1*
X558791Y841638D1*
X581520D1*
X526957Y640992D2*
Y469472D1*
X552941Y443488D1*
X977740D1*
X1003724Y469472D1*
Y544000D1*
X678921D2*
Y494984D1*
X797346D1*
X823331Y520969D1*
Y841051D1*
Y520969D2*
X849316Y494984D1*
X928921D1*
Y544000D1*
X823331Y841051D2*
X822350Y842031D1*
X783843D1*
Y867228D1*
X728921D1*
X686480Y984866D2*
Y964000D1*
X706480Y944000D1*
X728921D1*
X646992Y1041051D2*
X757860D1*
X783843Y1015067D1*
Y918409D1*
X728921D1*
X646992Y891441D2*
X709169D1*
X710547Y892819D1*
X728921D1*
X566445Y789472D2*
X709562D1*
X710547Y790457D1*
X728921D1*
X631917Y733488D2*
X728921D1*
Y764866D1*
X1112469Y946953D2*
X957268D1*
Y944000D1*
X1059480Y907465D2*
X1048535Y918409D1*
X957268D1*
X1178921Y994000D2*
X914787D1*
X888803Y968016D1*
Y892819D1*
X957268D1*
X1098969Y865850D2*
X977020D1*
X975642Y867228D1*
X957268D1*
X986217Y1033488D2*
X888803D1*
X862819Y1007504D1*
Y867622D1*
X888803Y841638D1*
X957268D1*
X1078693Y694000D2*
Y790063D1*
X1052709Y816047D1*
X957268D1*
X1178921Y594000D2*
X909829D1*
X883846Y619984D1*
Y790457D1*
X957268D1*
X1025701Y750500D2*
X957276D1*
Y764866D1*
D19*
X783843Y724000D3*
X753724Y606520D3*
X814909Y1193016D3*
X526957Y640992D3*
X823331Y841051D3*
X686480Y984866D3*
X646992Y1041051D3*
Y891441D3*
X566445Y789472D3*
X631917Y733488D3*
X1112469Y946953D3*
X1059480Y907465D3*
X1098969Y865850D3*
X986217Y1033488D3*
X1078693Y694000D3*
X1025701Y750500D3*
D15*
X753724Y1144000D3*
X678921D3*
X1003724D3*
X928921D3*
X678921Y544000D3*
X753724D3*
D16*
X474000Y1194000D3*
D17*
Y1094000D3*
Y994000D3*
Y894000D3*
Y794000D3*
Y694000D3*
Y594000D3*
Y494000D3*
D16*
X1178921Y1194000D3*
D17*
Y1094000D3*
Y994000D3*
Y894000D3*
Y794000D3*
Y694000D3*
Y594000D3*
Y494000D3*
D15*
X928921Y544000D3*
X1003724D3*
D18*
X728921Y944000D3*
Y918409D3*
Y892819D3*
Y867228D3*
Y841638D3*
Y816047D3*
Y790457D3*
Y764866D3*
X957276D3*
X957268Y790457D3*
Y816047D3*
Y841638D3*
Y867228D3*
Y892819D3*
Y918409D3*
Y944000D3*
M02*
