G04 DipTrace 3.1.0.1*
G04 HelloWorld1.gbl*
%MOIN*%
G04 #@! TF.FileFunction,Copper,L2,Bot*
G04 #@! TF.Part,Single*
G04 #@! TA.AperFunction,Conductor*
%ADD13C,0.012992*%
G04 #@! TA.AperFunction,CopperBalancing*
%ADD14C,0.025*%
G04 #@! TA.AperFunction,ComponentPad*
%ADD16R,0.066929X0.066929*%
%ADD17C,0.066929*%
G04 #@! TA.AperFunction,ViaPad*
%ADD19C,0.04*%
%FSLAX26Y26*%
G04*
G70*
G90*
G75*
G01*
G04 Bottom*
%LPD*%
X753724Y606520D2*
D13*
D3*
X783843Y724000D2*
X862819Y802976D1*
Y1145106D1*
X814909Y1193016D1*
X753724Y606520D2*
X746370Y613874D1*
Y678020D1*
X862819D1*
Y724000D1*
X783843D1*
X474000Y794000D2*
X526957Y741043D1*
Y640992D1*
X823331Y841051D2*
X632409D1*
X579461Y894000D1*
X474000D1*
X686480Y984866D2*
Y1168016D1*
X660496Y1194000D1*
X474000D1*
X646992Y1041051D2*
X594043Y1094000D1*
X474000D1*
X646992Y891441D2*
X544433Y994000D1*
X474000D1*
X566445Y789472D2*
Y619984D1*
X540461Y594000D1*
X474000D1*
X631917Y733488D2*
Y519984D1*
X605933Y494000D1*
X474000D1*
X1112469Y946953D2*
Y1127547D1*
X1178921Y1194000D1*
X1059480Y907465D2*
Y1220969D1*
X1085465Y1246953D1*
X1233795D1*
Y1148874D1*
X1178921Y1094000D1*
X1098969Y865850D2*
Y874000D1*
X1118969Y894000D1*
X1178921D1*
X986217Y1033488D2*
Y819984D1*
X1012201Y794000D1*
X1178921D1*
X1078693Y694000D2*
X1178921D1*
X1025701Y750500D2*
Y647220D1*
X1178921Y494000D1*
D19*
X783843Y724000D3*
X753724Y606520D3*
X814909Y1193016D3*
X526957Y640992D3*
X823331Y841051D3*
X686480Y984866D3*
X646992Y1041051D3*
Y891441D3*
X566445Y789472D3*
X631917Y733488D3*
X1112469Y946953D3*
X1059480Y907465D3*
X1098969Y865850D3*
X986217Y1033488D3*
X1078693Y694000D3*
X1025701Y750500D3*
X439018Y1256631D2*
D14*
X1045987D1*
X536479Y1231762D2*
X1025783D1*
X696774Y1206894D2*
X1023990D1*
X1094980D2*
X1116463D1*
X718843Y1182025D2*
X1023990D1*
X1094980D2*
X1116463D1*
X536479Y1157156D2*
X648175D1*
X721965D2*
X1023990D1*
X522664Y1132287D2*
X650974D1*
X721965D2*
X1023990D1*
X629778Y1107419D2*
X650974D1*
X721965D2*
X1023990D1*
X1241496D2*
X1258995D1*
X721965Y1082550D2*
X1023990D1*
X1240276D2*
X1258995D1*
X524207Y1057681D2*
X581215D1*
X721965D2*
X944004D1*
X1229152D2*
X1258995D1*
X522197Y1032812D2*
X598726D1*
X721965D2*
X937222D1*
X1227142D2*
X1258995D1*
X579648Y1007944D2*
X611824D1*
X729357D2*
X944865D1*
X1239738D2*
X1258995D1*
X604516Y983075D2*
X637517D1*
X735457D2*
X950714D1*
X1240383D2*
X1258995D1*
X629383Y958206D2*
X645878D1*
X727096D2*
X950714D1*
X1229546D2*
X1258995D1*
X521766Y933337D2*
X555916D1*
X669681D2*
X950714D1*
X1226676D2*
X1258995D1*
X692755Y908469D2*
X950714D1*
X1239630D2*
X1258995D1*
X695339Y883600D2*
X802083D1*
X844581D2*
X950714D1*
X1240491D2*
X1258995D1*
X524996Y858731D2*
X565570D1*
X868839D2*
X950714D1*
X1021705D2*
X1050508D1*
X1229906D2*
X1258995D1*
X521301Y833862D2*
X550104D1*
X582806D2*
X590437D1*
X871781D2*
X950714D1*
X1021705D2*
X1062709D1*
X1226210D2*
X1258995D1*
X611155Y808993D2*
X622087D1*
X859509D2*
X952617D1*
X1239487D2*
X1258995D1*
X615138Y784125D2*
X972927D1*
X1240563D2*
X1258995D1*
X673126Y759256D2*
X977520D1*
X1073881D2*
X1127551D1*
X1230301D2*
X1258995D1*
X439018Y734387D2*
X465022D1*
X680913D2*
X979566D1*
X1104239D2*
X1132109D1*
X1225743D2*
X1258995D1*
X439018Y709518D2*
X491469D1*
X674274D2*
X990223D1*
X1239343D2*
X1258995D1*
X439018Y684650D2*
X491469D1*
X667421D2*
X990223D1*
X1240635D2*
X1258995D1*
X439018Y659781D2*
X481924D1*
X667421D2*
X990223D1*
X1112672D2*
X1127193D1*
X1230659D2*
X1258995D1*
X667421Y634912D2*
X992591D1*
X1087157D2*
X1132575D1*
X1225277D2*
X1258995D1*
X667421Y610043D2*
X1013727D1*
X1239199D2*
X1258995D1*
X580797Y585175D2*
X596429D1*
X667421D2*
X1038594D1*
X1240743D2*
X1258995D1*
X526109Y560306D2*
X596429D1*
X667421D2*
X1063462D1*
X1231018D2*
X1258995D1*
X519829Y535437D2*
X596429D1*
X667421D2*
X1088331D1*
X1224774D2*
X1258995D1*
X666058Y510568D2*
X1113198D1*
X1239056D2*
X1258995D1*
X646787Y485699D2*
X1117038D1*
X1240814D2*
X1258995D1*
X526467Y460831D2*
X1126475D1*
X1231377D2*
X1258995D1*
X436535Y1253965D2*
X533965D1*
Y1227016D1*
X663085Y1226895D1*
X668198Y1226084D1*
X673123Y1224484D1*
X677736Y1222134D1*
X681925Y1219091D1*
X709812Y1191348D1*
X713175Y1187411D1*
X715879Y1182996D1*
X717861Y1178213D1*
X719070Y1173177D1*
X719475Y1168005D1*
X719476Y1017626D1*
X724100Y1012198D1*
X727912Y1005976D1*
X730705Y999235D1*
X732408Y992140D1*
X732980Y984866D1*
X732408Y977592D1*
X730705Y970496D1*
X727912Y963756D1*
X724100Y957534D1*
X719361Y951986D1*
X713812Y947247D1*
X707591Y943434D1*
X700849Y940642D1*
X693755Y938938D1*
X686480Y938366D1*
X679206Y938938D1*
X672110Y940642D1*
X665370Y943434D1*
X659148Y947247D1*
X653600Y951986D1*
X648861Y957534D1*
X645049Y963756D1*
X642256Y970496D1*
X640552Y977592D1*
X639980Y984866D1*
X640552Y992140D1*
X641106Y994924D1*
X636136Y995836D1*
X629197Y998091D1*
X622696Y1001403D1*
X616793Y1005692D1*
X611633Y1010852D1*
X607344Y1016755D1*
X604031Y1023256D1*
X601777Y1030196D1*
X600635Y1037403D1*
X600499Y1040894D1*
X580398Y1060982D1*
X524105Y1061004D1*
X519597Y1055056D1*
X512944Y1048403D1*
X507059Y1044026D1*
X512944Y1039597D1*
X519597Y1032944D1*
X524014Y1026999D1*
X547022Y1026895D1*
X552135Y1026084D1*
X557060Y1024484D1*
X561673Y1022134D1*
X565862Y1019091D1*
X613235Y971862D1*
X647160Y937937D1*
X654266Y937369D1*
X661361Y935665D1*
X668102Y932873D1*
X674324Y929060D1*
X679873Y924322D1*
X684612Y918773D1*
X688424Y912551D1*
X691217Y905810D1*
X692920Y898715D1*
X693492Y891441D1*
X692920Y884167D1*
X691217Y877072D1*
X690096Y874034D1*
X790551Y874047D1*
X795999Y878671D1*
X802220Y882483D1*
X808962Y885276D1*
X816056Y886979D1*
X823331Y887551D1*
X830605Y886979D1*
X837701Y885276D1*
X844441Y882483D1*
X850663Y878671D1*
X856211Y873932D1*
X860950Y868383D1*
X864762Y862161D1*
X867555Y855420D1*
X869259Y848325D1*
X869831Y841051D1*
X869259Y833777D1*
X867555Y826681D1*
X864762Y819941D1*
X860950Y813719D1*
X856211Y808171D1*
X850663Y803432D1*
X844441Y799619D1*
X837701Y796827D1*
X830605Y795123D1*
X823331Y794551D1*
X816056Y795123D1*
X808962Y796827D1*
X802220Y799619D1*
X795999Y803432D1*
X790566Y808064D1*
X629822Y808156D1*
X624707Y808967D1*
X619783Y810567D1*
X615169Y812917D1*
X610980Y815961D1*
X565816Y860982D1*
X524092Y861004D1*
X519597Y855056D1*
X512944Y848403D1*
X507059Y844026D1*
X512944Y839597D1*
X519597Y832944D1*
X525129Y825332D1*
X529223Y817332D1*
X533564Y822353D1*
X539113Y827092D1*
X545335Y830904D1*
X552076Y833696D1*
X559171Y835399D1*
X566445Y835972D1*
X573719Y835399D1*
X580814Y833696D1*
X587555Y830904D1*
X593777Y827092D1*
X599325Y822353D1*
X604064Y816804D1*
X607877Y810583D1*
X610669Y803841D1*
X612373Y796747D1*
X612945Y789472D1*
X612373Y782198D1*
X610555Y774795D1*
X617547Y777713D1*
X624643Y779416D1*
X631917Y779988D1*
X639192Y779416D1*
X646286Y777713D1*
X653028Y774920D1*
X659249Y771108D1*
X664798Y766369D1*
X669537Y760820D1*
X673349Y754598D1*
X676142Y747857D1*
X677845Y740762D1*
X678417Y733488D1*
X677845Y726214D1*
X676142Y719118D1*
X673349Y712378D1*
X669537Y706156D1*
X664904Y700723D1*
X664811Y517395D1*
X664001Y512281D1*
X662402Y507357D1*
X660051Y502744D1*
X657008Y498555D1*
X629265Y470668D1*
X625328Y467306D1*
X620913Y464600D1*
X616130Y462619D1*
X611094Y461409D1*
X605933Y461004D1*
X524081D1*
X520724Y456486D1*
X1132102Y456500D1*
X1127793Y462668D1*
X1123521Y471052D1*
X1120614Y480001D1*
X1119142Y489295D1*
Y498705D1*
X1120222Y506033D1*
X1000610Y625791D1*
X997567Y629980D1*
X995217Y634593D1*
X993617Y639517D1*
X992807Y644631D1*
X992705Y711525D1*
Y717732D1*
X988081Y723168D1*
X984269Y729390D1*
X981476Y736131D1*
X979773Y743226D1*
X979201Y750500D1*
X979773Y757774D1*
X981476Y764869D1*
X984269Y771610D1*
X985587Y773962D1*
X961126Y798555D1*
X958083Y802744D1*
X955732Y807357D1*
X954133Y812281D1*
X953323Y817395D1*
X953220Y884289D1*
Y1000732D1*
X948597Y1006156D1*
X944785Y1012378D1*
X941993Y1019118D1*
X940290Y1026214D1*
X939717Y1033488D1*
X940290Y1040762D1*
X941993Y1047857D1*
X944785Y1054598D1*
X948597Y1060820D1*
X953336Y1066369D1*
X958885Y1071108D1*
X965106Y1074920D1*
X971848Y1077713D1*
X978942Y1079416D1*
X986217Y1079988D1*
X993491Y1079416D1*
X1000587Y1077713D1*
X1007328Y1074920D1*
X1013549Y1071108D1*
X1019097Y1066369D1*
X1023836Y1060820D1*
X1026486Y1056677D1*
X1026585Y1223556D1*
X1027395Y1228671D1*
X1028996Y1233594D1*
X1031346Y1238209D1*
X1034390Y1242398D1*
X1062134Y1270285D1*
X1066071Y1273647D1*
X1070486Y1276353D1*
X1075269Y1278335D1*
X1080303Y1279543D1*
X1085465Y1279949D1*
X1236383Y1279848D1*
X1241497Y1279037D1*
X1246423Y1277437D1*
X1251035Y1275087D1*
X1255224Y1272043D1*
X1258886Y1268382D1*
X1260495Y1266339D1*
X1261500Y1270772D1*
Y1281501D1*
X436499Y1281500D1*
X436500Y1253990D1*
X533965Y1160988D2*
Y1134035D1*
X518642D1*
X524014Y1126999D1*
X596631Y1126895D1*
X601745Y1126084D1*
X606671Y1124484D1*
X611283Y1122134D1*
X615472Y1119091D1*
X647138Y1087568D1*
X653487Y1087071D1*
X653484Y1154346D1*
X646833Y1161000D1*
X533933Y1161004D1*
X524014Y961001D2*
X519597Y955056D1*
X512944Y948403D1*
X507059Y944026D1*
X512944Y939597D1*
X519597Y932944D1*
X524014Y926999D1*
X564751Y926996D1*
X530766Y961003D1*
X524087Y961004D1*
X486033Y735301D2*
X478705Y734220D1*
X469295D1*
X460001Y735693D1*
X451052Y738600D1*
X442668Y742871D1*
X436486Y747276D1*
X436500Y640801D1*
X442668Y645129D1*
X451052Y649400D1*
X460001Y652307D1*
X469295Y653780D1*
X478705D1*
X482121Y653375D1*
X483996Y658787D1*
X487310Y665289D1*
X491598Y671192D1*
X493970Y673757D1*
X493961Y727365D1*
X486092Y735244D1*
X524014Y561001D2*
X519597Y555056D1*
X512944Y548403D1*
X507059Y544026D1*
X512944Y539597D1*
X519597Y532944D1*
X524014Y526999D1*
X592239Y526996D1*
X598916Y533647D1*
X598921Y614180D1*
X597827Y609787D1*
X595845Y605004D1*
X593139Y600589D1*
X589777Y596652D1*
X561890Y568909D1*
X557701Y565866D1*
X553088Y563516D1*
X548164Y561916D1*
X543050Y561105D1*
X524062Y561004D1*
X1118957Y1180720D2*
Y1213950D1*
X1099122Y1213957D1*
X1092482Y1207306D1*
X1092476Y1154188D1*
X1118951Y1180694D1*
X1238701Y1089295D2*
X1237228Y1080001D1*
X1234322Y1071052D1*
X1230050Y1062668D1*
X1224518Y1055056D1*
X1217865Y1048403D1*
X1211980Y1044026D1*
X1217865Y1039597D1*
X1224518Y1032944D1*
X1230050Y1025332D1*
X1234322Y1016948D1*
X1237228Y1007999D1*
X1238701Y998705D1*
Y989295D1*
X1237228Y980001D1*
X1234322Y971052D1*
X1230050Y962668D1*
X1224518Y955056D1*
X1217865Y948403D1*
X1211980Y944026D1*
X1217865Y939597D1*
X1224518Y932944D1*
X1230050Y925332D1*
X1234322Y916948D1*
X1237228Y907999D1*
X1238701Y898705D1*
Y889295D1*
X1237228Y880001D1*
X1234322Y871052D1*
X1230050Y862668D1*
X1224518Y855056D1*
X1217865Y848403D1*
X1211980Y844026D1*
X1217865Y839597D1*
X1224518Y832944D1*
X1230050Y825332D1*
X1234322Y816948D1*
X1237228Y807999D1*
X1238701Y798705D1*
Y789295D1*
X1237228Y780001D1*
X1234322Y771052D1*
X1230050Y762668D1*
X1224518Y755056D1*
X1217865Y748403D1*
X1211980Y744026D1*
X1217865Y739597D1*
X1224518Y732944D1*
X1230050Y725332D1*
X1234322Y716948D1*
X1237228Y707999D1*
X1238701Y698705D1*
Y689295D1*
X1237228Y680001D1*
X1234322Y671052D1*
X1230050Y662668D1*
X1224518Y655056D1*
X1217865Y648403D1*
X1211980Y644026D1*
X1217865Y639597D1*
X1224518Y632944D1*
X1230050Y625332D1*
X1234322Y616948D1*
X1237228Y607999D1*
X1238701Y598705D1*
Y589295D1*
X1237228Y580001D1*
X1234322Y571052D1*
X1230050Y562668D1*
X1224518Y555056D1*
X1217865Y548403D1*
X1211980Y544026D1*
X1217865Y539597D1*
X1224518Y532944D1*
X1230050Y525332D1*
X1234322Y516948D1*
X1237228Y507999D1*
X1238701Y498705D1*
Y489295D1*
X1237228Y480001D1*
X1234322Y471052D1*
X1230050Y462668D1*
X1225646Y456486D1*
X1261501Y456500D1*
X1261500Y1130930D1*
X1257127Y1125542D1*
X1237665Y1106080D1*
X1238701Y1098705D1*
Y1089295D1*
X1145862Y744026D2*
X1139978Y748403D1*
X1133324Y755056D1*
X1128907Y761001D1*
X1071017Y761004D1*
X1072058Y754148D1*
Y746852D1*
X1070958Y739854D1*
X1078693Y740500D1*
X1085967Y739928D1*
X1093062Y738224D1*
X1099803Y735432D1*
X1106025Y731619D1*
X1111458Y726987D1*
X1128823Y726996D1*
X1133324Y732944D1*
X1139978Y739597D1*
X1145862Y743974D1*
Y644026D2*
X1139978Y648403D1*
X1133324Y655056D1*
X1128907Y661001D1*
X1111423Y661004D1*
X1106025Y656381D1*
X1099803Y652568D1*
X1093062Y649776D1*
X1085967Y648072D1*
X1078693Y647500D1*
X1071518Y648060D1*
X1119293Y600291D1*
X1120614Y607999D1*
X1123521Y616948D1*
X1127793Y625332D1*
X1133324Y632944D1*
X1139978Y639597D1*
X1145862Y643974D1*
X1052673Y861482D2*
X1045110Y863241D1*
X1038370Y866033D1*
X1032148Y869845D1*
X1026600Y874584D1*
X1021861Y880133D1*
X1019213Y884277D1*
Y833650D1*
X1025865Y827000D1*
X1073455Y826996D1*
X1068769Y830491D1*
X1063610Y835651D1*
X1059322Y841554D1*
X1056009Y848055D1*
X1053753Y854995D1*
X1052701Y861451D1*
X1019213Y930654D2*
X1021861Y934797D1*
X1026493Y940230D1*
X1026484Y1010201D1*
X1021576Y1003289D1*
X1019203Y1000723D1*
X1019213Y930752D1*
D16*
X474000Y1194000D3*
D17*
Y1094000D3*
Y994000D3*
Y894000D3*
Y794000D3*
Y694000D3*
Y594000D3*
Y494000D3*
D16*
X1178921Y1194000D3*
D17*
Y1094000D3*
Y994000D3*
Y894000D3*
Y794000D3*
Y694000D3*
Y594000D3*
Y494000D3*
M02*
