M48
INCH
T01C0.0191
T02C0.0433
%
T01
X+007838Y+007240
X+007537Y+006065
X+006319Y+007335
X+005664Y+007895
X+006470Y+008914
X+006865Y+009849
X+006470Y+010411
X+008149Y+011930
X+009862Y+010335
X+010595Y+009075
X+010990Y+008659
X+011125Y+009470
X+010257Y+007505
X+010787Y+006940
X+008233Y+008411
X+005270Y+006410
T02
X+004740Y+011940
X+004740Y+010940
X+004740Y+009940
X+004740Y+008940
X+004740Y+007940
X+004740Y+006940
X+004740Y+005940
X+004740Y+004940
X+011789Y+004940
X+011789Y+005940
X+011789Y+006940
X+011789Y+007940
X+011789Y+008940
X+011789Y+009940
X+011789Y+010940
X+011789Y+011940
T00
M30
